<svg width="16" height="16" viewBox="0 0 386 417" fill="none" xmlns="http://www.w3.org/2000/svg">
<path d="M215.6 407.6C203.1 420.1 182.8 420.1 170.3 407.6L10.2998 247.6C-2.2002 235.1 -2.2002 214.8 10.2998 202.3C22.7998 189.8 43.0998 189.8 55.5998 202.3L193 339.7L330.4 202.4C342.9 189.9 363.2 189.9 375.7 202.4C388.2 214.9 388.2 235.2 375.7 247.7L215.7 407.7L215.6 407.6ZM375.6 55.5998L215.6 215.6C203.1 228.1 182.8 228.1 170.3 215.6L10.2998 55.5998C-2.2002 43.0998 -2.2002 22.7998 10.2998 10.2998C22.7998 -2.2002 43.0998 -2.2002 55.5998 10.2998L193 147.7L330.4 10.3998C342.9 -2.1002 363.2 -2.1002 375.7 10.3998C388.2 22.8998 388.2 43.1998 375.7 55.6998L375.6 55.5998Z" fill="#003b50"/>
</svg>
