<svg width="20" height="20" viewBox="0 0 86 74" fill="none" xmlns="http://www.w3.org/2000/svg">
<path d="M86 4V70C86 72.2 84.2 74 82 74H29.9C27.7 74 26 72.2 26 70V51.7C26 49.5 27.8 47.7 30 47.7C32.2 47.7 34 49.5 34 51.7V66H78V8H34V22.3C34 24.5 32.2 26.3 30 26.3C27.8 26.3 26 24.5 26 22.3V4C26 1.8 27.7 0 29.9 0H82C84.2 0 86 1.8 86 4ZM43.5 49.9C41.9 51.5 42 54 43.5 55.6C44.3 56.4 45.3 56.8 46.3 56.8C47.3 56.8 48.4 56.4 49.1 55.6L64.8 39.8C66.3 38.2 66.3 35.7 64.8 34.2L49.2 18.2C47.6 16.6 45.1 16.6 43.5 18.2C41.9 19.8 41.9 22.3 43.5 23.9L52.4 32.9L4 33C1.8 33 0 34.8 0 37C0 39.2 1.8 41 4 41L52.4 40.9L43.5 49.9Z" fill="black"/>
</svg>
