<svg width="60" height="60" viewBox="0 0 60 60" fill="none" xmlns="http://www.w3.org/2000/svg">
<rect width="60" height="60" rx="12" fill="#28DFAE"/>
<path d="M30 44C37.732 44 44 37.732 44 30C44 22.268 37.732 16 30 16C22.268 16 16 22.268 16 30C16 37.732 22.268 44 30 44Z" stroke="white" stroke-width="2" stroke-linecap="round" stroke-linejoin="round"/>
<path d="M30 16V12" stroke="white" stroke-width="2" stroke-linecap="round" stroke-linejoin="round"/>
<path d="M20.0998 20.1L17.2798 17.28" stroke="white" stroke-width="2" stroke-linecap="round" stroke-linejoin="round"/>
<path d="M16 30H12" stroke="white" stroke-width="2" stroke-linecap="round" stroke-linejoin="round"/>
<path d="M20.0998 39.9L17.2798 42.72" stroke="white" stroke-width="2" stroke-linecap="round" stroke-linejoin="round"/>
<path d="M30 44V48" stroke="white" stroke-width="2" stroke-linecap="round" stroke-linejoin="round"/>
<path d="M39.8999 39.9L42.7199 42.72" stroke="white" stroke-width="2" stroke-linecap="round" stroke-linejoin="round"/>
<path d="M44 30H48" stroke="white" stroke-width="2" stroke-linecap="round" stroke-linejoin="round"/>
<path d="M39.8999 20.1L42.7199 17.28" stroke="white" stroke-width="2" stroke-linecap="round" stroke-linejoin="round"/>
<path d="M33 37C35.2091 37 37 35.2091 37 33C37 30.7909 35.2091 29 33 29C30.7909 29 29 30.7909 29 33C29 35.2091 30.7909 37 33 37Z" stroke="white" stroke-width="2" stroke-linecap="round" stroke-linejoin="round"/>
<path d="M26 28C27.1046 28 28 27.1046 28 26C28 24.8954 27.1046 24 26 24C24.8954 24 24 24.8954 24 26C24 27.1046 24.8954 28 26 28Z" stroke="white" stroke-width="2" stroke-linecap="round" stroke-linejoin="round"/>
</svg>
